<mxfile host="app.diagrams.net" modified="2023-11-05T14:41:24.559Z" agent="Mozilla/5.0 (Windows NT 10.0; Win64; x64) AppleWebKit/537.36 (KHTML, like Gecko) Chrome/119.0.0.0 Safari/537.36" etag="zFoexAOcDPb8WMhxETjI" version="22.0.8" type="device">
  <diagram name="Page-1" id="N2N50s-fgw4lFtiQcmdh">
    <mxGraphModel dx="2614" dy="916" grid="1" gridSize="12" guides="1" tooltips="1" connect="1" arrows="1" fold="1" page="1" pageScale="1" pageWidth="850" pageHeight="1100" math="0" shadow="0">
      <root>
        <mxCell id="0" />
        <mxCell id="1" parent="0" />
        <mxCell id="M2O_3QjMa4VLskCS5rX2-1" value="Customer" style="shape=umlActor;verticalLabelPosition=bottom;verticalAlign=top;html=1;outlineConnect=0;" vertex="1" parent="1">
          <mxGeometry x="-60" y="250" width="30" height="80" as="geometry" />
        </mxCell>
        <mxCell id="M2O_3QjMa4VLskCS5rX2-8" value="Guest" style="shape=umlActor;verticalLabelPosition=bottom;verticalAlign=top;html=1;outlineConnect=0;" vertex="1" parent="1">
          <mxGeometry x="50" y="70" width="40" height="80" as="geometry" />
        </mxCell>
        <mxCell id="M2O_3QjMa4VLskCS5rX2-9" value="Member" style="shape=umlActor;verticalLabelPosition=bottom;verticalAlign=top;html=1;outlineConnect=0;" vertex="1" parent="1">
          <mxGeometry x="50" y="370" width="40" height="80" as="geometry" />
        </mxCell>
        <mxCell id="M2O_3QjMa4VLskCS5rX2-13" value="" style="endArrow=none;html=1;rounded=0;" edge="1" parent="1" source="M2O_3QjMa4VLskCS5rX2-14">
          <mxGeometry width="50" height="50" relative="1" as="geometry">
            <mxPoint y="220" as="sourcePoint" />
            <mxPoint x="50" y="170" as="targetPoint" />
          </mxGeometry>
        </mxCell>
        <mxCell id="M2O_3QjMa4VLskCS5rX2-14" value="" style="triangle;whiteSpace=wrap;html=1;rotation=-225;" vertex="1" parent="1">
          <mxGeometry x="-20" y="220" width="20" height="20" as="geometry" />
        </mxCell>
        <mxCell id="M2O_3QjMa4VLskCS5rX2-16" value="" style="triangle;whiteSpace=wrap;html=1;rotation=-225;" vertex="1" parent="1">
          <mxGeometry x="-20" y="220" width="20" height="20" as="geometry" />
        </mxCell>
        <mxCell id="M2O_3QjMa4VLskCS5rX2-19" value="" style="triangle;whiteSpace=wrap;html=1;rotation=-145;" vertex="1" parent="1">
          <mxGeometry x="-20" y="340" width="20" height="20" as="geometry" />
        </mxCell>
        <mxCell id="M2O_3QjMa4VLskCS5rX2-22" value="" style="endArrow=none;html=1;rounded=0;exitX=0;exitY=0.5;exitDx=0;exitDy=0;" edge="1" parent="1" source="M2O_3QjMa4VLskCS5rX2-19" target="M2O_3QjMa4VLskCS5rX2-9">
          <mxGeometry width="50" height="50" relative="1" as="geometry">
            <mxPoint x="20" y="370" as="sourcePoint" />
            <mxPoint x="80" y="340" as="targetPoint" />
          </mxGeometry>
        </mxCell>
        <mxCell id="M2O_3QjMa4VLskCS5rX2-23" value="Generalization" style="text;html=1;align=center;verticalAlign=middle;resizable=0;points=[];autosize=1;strokeColor=none;fillColor=none;rotation=35;fontSize=7;" vertex="1" parent="1">
          <mxGeometry x="-20" y="380" width="70" height="20" as="geometry" />
        </mxCell>
        <mxCell id="M2O_3QjMa4VLskCS5rX2-25" value="Generalization" style="text;html=1;align=center;verticalAlign=middle;resizable=0;points=[];autosize=1;strokeColor=none;fillColor=none;rotation=-45;fontSize=7;" vertex="1" parent="1">
          <mxGeometry x="-20" y="180" width="70" height="20" as="geometry" />
        </mxCell>
        <mxCell id="M2O_3QjMa4VLskCS5rX2-37" value="ADTShop" style="swimlane;whiteSpace=wrap;html=1;" vertex="1" parent="1">
          <mxGeometry x="140" y="40" width="572" height="590" as="geometry" />
        </mxCell>
        <mxCell id="M2O_3QjMa4VLskCS5rX2-38" value="Browse/View&lt;br&gt;Product" style="ellipse;whiteSpace=wrap;html=1;" vertex="1" parent="M2O_3QjMa4VLskCS5rX2-37">
          <mxGeometry x="50" y="190" width="120" height="60" as="geometry" />
        </mxCell>
        <mxCell id="M2O_3QjMa4VLskCS5rX2-40" value="Member register" style="ellipse;whiteSpace=wrap;html=1;" vertex="1" parent="M2O_3QjMa4VLskCS5rX2-37">
          <mxGeometry x="40" y="70" width="120" height="60" as="geometry" />
        </mxCell>
        <mxCell id="M2O_3QjMa4VLskCS5rX2-53" value="Validation&lt;br&gt;profile" style="ellipse;whiteSpace=wrap;html=1;" vertex="1" parent="M2O_3QjMa4VLskCS5rX2-37">
          <mxGeometry x="250" y="30" width="100" height="60" as="geometry" />
        </mxCell>
        <mxCell id="M2O_3QjMa4VLskCS5rX2-52" value="" style="endArrow=none;dashed=1;html=1;rounded=0;exitX=1.021;exitY=0.373;exitDx=0;exitDy=0;exitPerimeter=0;entryX=-0.001;entryY=0.644;entryDx=0;entryDy=0;entryPerimeter=0;" edge="1" parent="M2O_3QjMa4VLskCS5rX2-37" source="M2O_3QjMa4VLskCS5rX2-40" target="M2O_3QjMa4VLskCS5rX2-53">
          <mxGeometry width="50" height="50" relative="1" as="geometry">
            <mxPoint x="210" y="280" as="sourcePoint" />
            <mxPoint x="240" y="70" as="targetPoint" />
          </mxGeometry>
        </mxCell>
        <mxCell id="M2O_3QjMa4VLskCS5rX2-54" value="&amp;lt;&amp;lt;include&amp;gt;&amp;gt;" style="text;html=1;strokeColor=none;fillColor=none;align=center;verticalAlign=middle;whiteSpace=wrap;rounded=0;rotation=-15;" vertex="1" parent="M2O_3QjMa4VLskCS5rX2-37">
          <mxGeometry x="170" y="50" width="60" height="30" as="geometry" />
        </mxCell>
        <mxCell id="M2O_3QjMa4VLskCS5rX2-56" value="Update&lt;br&gt;database" style="ellipse;whiteSpace=wrap;html=1;" vertex="1" parent="M2O_3QjMa4VLskCS5rX2-37">
          <mxGeometry x="415" y="220" width="100" height="60" as="geometry" />
        </mxCell>
        <mxCell id="M2O_3QjMa4VLskCS5rX2-63" value="Edit profile" style="ellipse;whiteSpace=wrap;html=1;" vertex="1" parent="M2O_3QjMa4VLskCS5rX2-37">
          <mxGeometry x="50" y="520" width="120" height="60" as="geometry" />
        </mxCell>
        <mxCell id="M2O_3QjMa4VLskCS5rX2-64" value="Edit cart" style="ellipse;whiteSpace=wrap;html=1;" vertex="1" parent="M2O_3QjMa4VLskCS5rX2-37">
          <mxGeometry x="50" y="320" width="120" height="60" as="geometry" />
        </mxCell>
        <mxCell id="M2O_3QjMa4VLskCS5rX2-76" value="Add Item" style="ellipse;whiteSpace=wrap;html=1;" vertex="1" parent="M2O_3QjMa4VLskCS5rX2-37">
          <mxGeometry x="200" y="275" width="80" height="40" as="geometry" />
        </mxCell>
        <mxCell id="M2O_3QjMa4VLskCS5rX2-77" value="Delete Item" style="ellipse;whiteSpace=wrap;html=1;" vertex="1" parent="M2O_3QjMa4VLskCS5rX2-37">
          <mxGeometry x="190" y="390" width="80" height="40" as="geometry" />
        </mxCell>
        <mxCell id="M2O_3QjMa4VLskCS5rX2-81" value="" style="endArrow=classic;html=1;rounded=0;entryX=-0.017;entryY=0.813;entryDx=0;entryDy=0;exitX=0.94;exitY=0.125;exitDx=0;exitDy=0;entryPerimeter=0;exitPerimeter=0;" edge="1" parent="M2O_3QjMa4VLskCS5rX2-37" source="M2O_3QjMa4VLskCS5rX2-64" target="M2O_3QjMa4VLskCS5rX2-76">
          <mxGeometry width="50" height="50" relative="1" as="geometry">
            <mxPoint x="350" y="290" as="sourcePoint" />
            <mxPoint x="400" y="240" as="targetPoint" />
          </mxGeometry>
        </mxCell>
        <mxCell id="M2O_3QjMa4VLskCS5rX2-82" value="" style="endArrow=classic;html=1;rounded=0;entryX=0;entryY=0;entryDx=0;entryDy=0;exitX=0.947;exitY=0.833;exitDx=0;exitDy=0;exitPerimeter=0;" edge="1" parent="M2O_3QjMa4VLskCS5rX2-37" source="M2O_3QjMa4VLskCS5rX2-64" target="M2O_3QjMa4VLskCS5rX2-77">
          <mxGeometry width="50" height="50" relative="1" as="geometry">
            <mxPoint x="350" y="290" as="sourcePoint" />
            <mxPoint x="170" y="400" as="targetPoint" />
          </mxGeometry>
        </mxCell>
        <mxCell id="M2O_3QjMa4VLskCS5rX2-83" value="Purchase" style="ellipse;whiteSpace=wrap;html=1;" vertex="1" parent="M2O_3QjMa4VLskCS5rX2-37">
          <mxGeometry x="300" y="320" width="95" height="60" as="geometry" />
        </mxCell>
        <mxCell id="M2O_3QjMa4VLskCS5rX2-86" value="" style="endArrow=none;dashed=1;html=1;rounded=0;entryX=0.327;entryY=-0.062;entryDx=0;entryDy=0;entryPerimeter=0;exitX=0.968;exitY=0.833;exitDx=0;exitDy=0;exitPerimeter=0;" edge="1" parent="M2O_3QjMa4VLskCS5rX2-37" source="M2O_3QjMa4VLskCS5rX2-38" target="M2O_3QjMa4VLskCS5rX2-76">
          <mxGeometry width="50" height="50" relative="1" as="geometry">
            <mxPoint x="173" y="220" as="sourcePoint" />
            <mxPoint x="260" y="79" as="targetPoint" />
          </mxGeometry>
        </mxCell>
        <mxCell id="M2O_3QjMa4VLskCS5rX2-87" value="&amp;lt;&amp;lt;extend&amp;gt;&amp;gt;" style="edgeLabel;html=1;align=center;verticalAlign=middle;resizable=0;points=[];" vertex="1" connectable="0" parent="M2O_3QjMa4VLskCS5rX2-86">
          <mxGeometry x="-0.2701" y="2" relative="1" as="geometry">
            <mxPoint as="offset" />
          </mxGeometry>
        </mxCell>
        <mxCell id="M2O_3QjMa4VLskCS5rX2-90" value="" style="endArrow=none;dashed=1;html=1;dashPattern=1 3;strokeWidth=2;rounded=0;exitX=1;exitY=0.5;exitDx=0;exitDy=0;entryX=0;entryY=0.5;entryDx=0;entryDy=0;" edge="1" parent="M2O_3QjMa4VLskCS5rX2-37" source="M2O_3QjMa4VLskCS5rX2-64" target="M2O_3QjMa4VLskCS5rX2-83">
          <mxGeometry width="50" height="50" relative="1" as="geometry">
            <mxPoint x="350" y="290" as="sourcePoint" />
            <mxPoint x="400" y="240" as="targetPoint" />
          </mxGeometry>
        </mxCell>
        <mxCell id="M2O_3QjMa4VLskCS5rX2-91" value="&amp;lt;&amp;lt;extend&amp;gt;&amp;gt;" style="edgeLabel;html=1;align=center;verticalAlign=middle;resizable=0;points=[];" vertex="1" connectable="0" parent="M2O_3QjMa4VLskCS5rX2-90">
          <mxGeometry x="0.1718" y="2" relative="1" as="geometry">
            <mxPoint as="offset" />
          </mxGeometry>
        </mxCell>
        <mxCell id="M2O_3QjMa4VLskCS5rX2-92" value="Confirm&lt;br&gt;Payment/Shipment" style="ellipse;whiteSpace=wrap;html=1;" vertex="1" parent="M2O_3QjMa4VLskCS5rX2-37">
          <mxGeometry x="300" y="416" width="110" height="70" as="geometry" />
        </mxCell>
        <mxCell id="M2O_3QjMa4VLskCS5rX2-93" value="" style="endArrow=none;dashed=1;html=1;dashPattern=1 3;strokeWidth=2;rounded=0;entryX=0;entryY=0.5;entryDx=0;entryDy=0;" edge="1" parent="M2O_3QjMa4VLskCS5rX2-37" target="M2O_3QjMa4VLskCS5rX2-99">
          <mxGeometry width="50" height="50" relative="1" as="geometry">
            <mxPoint x="400" y="344" as="sourcePoint" />
            <mxPoint x="580" y="332" as="targetPoint" />
          </mxGeometry>
        </mxCell>
        <mxCell id="M2O_3QjMa4VLskCS5rX2-94" value="&lt;font style=&quot;font-size: 13px;&quot;&gt;&amp;lt;&amp;lt;extend&amp;gt;&amp;gt;&lt;/font&gt;" style="edgeLabel;html=1;align=center;verticalAlign=middle;resizable=0;points=[];" vertex="1" connectable="0" parent="M2O_3QjMa4VLskCS5rX2-93">
          <mxGeometry x="0.1111" y="-1" relative="1" as="geometry">
            <mxPoint as="offset" />
          </mxGeometry>
        </mxCell>
        <mxCell id="M2O_3QjMa4VLskCS5rX2-96" value="" style="endArrow=none;dashed=1;html=1;dashPattern=1 3;strokeWidth=2;rounded=0;entryX=0.295;entryY=0.069;entryDx=0;entryDy=0;entryPerimeter=0;" edge="1" parent="M2O_3QjMa4VLskCS5rX2-37" source="M2O_3QjMa4VLskCS5rX2-53" target="M2O_3QjMa4VLskCS5rX2-56">
          <mxGeometry width="50" height="50" relative="1" as="geometry">
            <mxPoint x="350" y="290" as="sourcePoint" />
            <mxPoint x="400" y="240" as="targetPoint" />
          </mxGeometry>
        </mxCell>
        <mxCell id="M2O_3QjMa4VLskCS5rX2-97" value="&lt;font style=&quot;font-size: 14px;&quot;&gt;&amp;lt;&amp;lt;extend&amp;gt;&amp;gt;&lt;/font&gt;" style="edgeLabel;html=1;align=center;verticalAlign=middle;resizable=0;points=[];" vertex="1" connectable="0" parent="M2O_3QjMa4VLskCS5rX2-96">
          <mxGeometry x="-0.1221" y="-2" relative="1" as="geometry">
            <mxPoint as="offset" />
          </mxGeometry>
        </mxCell>
        <mxCell id="M2O_3QjMa4VLskCS5rX2-100" value="Update&lt;br&gt;database" style="ellipse;whiteSpace=wrap;html=1;" vertex="1" parent="M2O_3QjMa4VLskCS5rX2-37">
          <mxGeometry x="415" y="520" width="100" height="60" as="geometry" />
        </mxCell>
        <mxCell id="M2O_3QjMa4VLskCS5rX2-95" value="" style="endArrow=none;dashed=1;html=1;dashPattern=1 3;strokeWidth=2;rounded=0;exitX=1;exitY=0.5;exitDx=0;exitDy=0;entryX=0;entryY=0.5;entryDx=0;entryDy=0;" edge="1" parent="M2O_3QjMa4VLskCS5rX2-37" source="M2O_3QjMa4VLskCS5rX2-63" target="M2O_3QjMa4VLskCS5rX2-100">
          <mxGeometry width="50" height="50" relative="1" as="geometry">
            <mxPoint x="350" y="540" as="sourcePoint" />
            <mxPoint x="470" y="550" as="targetPoint" />
          </mxGeometry>
        </mxCell>
        <mxCell id="M2O_3QjMa4VLskCS5rX2-107" value="&amp;lt;&amp;lt;extend&amp;gt;&amp;gt;" style="edgeLabel;html=1;align=center;verticalAlign=middle;resizable=0;points=[];" vertex="1" connectable="0" parent="M2O_3QjMa4VLskCS5rX2-95">
          <mxGeometry x="-0.0211" y="-1" relative="1" as="geometry">
            <mxPoint as="offset" />
          </mxGeometry>
        </mxCell>
        <mxCell id="M2O_3QjMa4VLskCS5rX2-47" value="Administrator" style="shape=umlActor;verticalLabelPosition=bottom;verticalAlign=top;html=1;outlineConnect=0;" vertex="1" parent="1">
          <mxGeometry x="900" y="260" width="30" height="60" as="geometry" />
        </mxCell>
        <mxCell id="M2O_3QjMa4VLskCS5rX2-48" value="" style="endArrow=none;html=1;rounded=0;entryX=0;entryY=0.333;entryDx=0;entryDy=0;entryPerimeter=0;" edge="1" parent="1" source="M2O_3QjMa4VLskCS5rX2-8" target="M2O_3QjMa4VLskCS5rX2-40">
          <mxGeometry width="50" height="50" relative="1" as="geometry">
            <mxPoint x="180" y="140" as="sourcePoint" />
            <mxPoint x="230" y="90" as="targetPoint" />
          </mxGeometry>
        </mxCell>
        <mxCell id="M2O_3QjMa4VLskCS5rX2-49" value="" style="endArrow=none;html=1;rounded=0;" edge="1" parent="1" target="M2O_3QjMa4VLskCS5rX2-38">
          <mxGeometry width="50" height="50" relative="1" as="geometry">
            <mxPoint x="90" y="120" as="sourcePoint" />
            <mxPoint x="200" y="130" as="targetPoint" />
          </mxGeometry>
        </mxCell>
        <mxCell id="M2O_3QjMa4VLskCS5rX2-50" value="" style="endArrow=none;html=1;rounded=0;" edge="1" parent="1" source="M2O_3QjMa4VLskCS5rX2-9" target="M2O_3QjMa4VLskCS5rX2-38">
          <mxGeometry width="50" height="50" relative="1" as="geometry">
            <mxPoint x="180" y="410" as="sourcePoint" />
            <mxPoint x="230" y="360" as="targetPoint" />
          </mxGeometry>
        </mxCell>
        <mxCell id="M2O_3QjMa4VLskCS5rX2-69" value="" style="endArrow=none;html=1;rounded=0;exitX=1;exitY=0.5;exitDx=0;exitDy=0;" edge="1" parent="1" source="M2O_3QjMa4VLskCS5rX2-56" target="M2O_3QjMa4VLskCS5rX2-47">
          <mxGeometry width="50" height="50" relative="1" as="geometry">
            <mxPoint x="450" y="310" as="sourcePoint" />
            <mxPoint x="500" y="260" as="targetPoint" />
          </mxGeometry>
        </mxCell>
        <mxCell id="M2O_3QjMa4VLskCS5rX2-71" value="" style="endArrow=none;html=1;rounded=0;entryX=0.5;entryY=0;entryDx=0;entryDy=0;entryPerimeter=0;exitX=0;exitY=0.5;exitDx=0;exitDy=0;exitPerimeter=0;" edge="1" parent="1" source="M2O_3QjMa4VLskCS5rX2-72" target="M2O_3QjMa4VLskCS5rX2-47">
          <mxGeometry width="50" height="50" relative="1" as="geometry">
            <mxPoint x="915" y="180" as="sourcePoint" />
            <mxPoint x="500" y="260" as="targetPoint" />
          </mxGeometry>
        </mxCell>
        <mxCell id="M2O_3QjMa4VLskCS5rX2-58" value="" style="image;aspect=fixed;perimeter=ellipsePerimeter;html=1;align=center;shadow=0;dashed=0;spacingTop=3;image=img/lib/active_directory/database.svg;" vertex="1" parent="1">
          <mxGeometry x="890" y="58" width="50" height="37" as="geometry" />
        </mxCell>
        <mxCell id="M2O_3QjMa4VLskCS5rX2-72" value="" style="triangle;whiteSpace=wrap;html=1;rotation=-90;" vertex="1" parent="1">
          <mxGeometry x="900" y="140" width="30" height="30" as="geometry" />
        </mxCell>
        <mxCell id="M2O_3QjMa4VLskCS5rX2-75" value="Database&lt;br&gt;" style="text;html=1;align=center;verticalAlign=middle;resizable=0;points=[];autosize=1;strokeColor=none;fillColor=none;" vertex="1" parent="1">
          <mxGeometry x="880" y="95" width="70" height="30" as="geometry" />
        </mxCell>
        <mxCell id="M2O_3QjMa4VLskCS5rX2-78" value="" style="endArrow=none;html=1;rounded=0;entryX=0;entryY=0.5;entryDx=0;entryDy=0;" edge="1" parent="1" source="M2O_3QjMa4VLskCS5rX2-9" target="M2O_3QjMa4VLskCS5rX2-64">
          <mxGeometry width="50" height="50" relative="1" as="geometry">
            <mxPoint x="490" y="330" as="sourcePoint" />
            <mxPoint x="540" y="280" as="targetPoint" />
          </mxGeometry>
        </mxCell>
        <mxCell id="M2O_3QjMa4VLskCS5rX2-79" value="" style="endArrow=none;html=1;rounded=0;entryX=0.051;entryY=0.167;entryDx=0;entryDy=0;entryPerimeter=0;" edge="1" parent="1" source="M2O_3QjMa4VLskCS5rX2-9" target="M2O_3QjMa4VLskCS5rX2-63">
          <mxGeometry width="50" height="50" relative="1" as="geometry">
            <mxPoint x="100" y="420" as="sourcePoint" />
            <mxPoint x="540" y="280" as="targetPoint" />
          </mxGeometry>
        </mxCell>
        <mxCell id="M2O_3QjMa4VLskCS5rX2-99" value="Payment&lt;br&gt;Services" style="shape=process;whiteSpace=wrap;html=1;backgroundOutline=1;" vertex="1" parent="1">
          <mxGeometry x="730" y="370" width="120" height="60" as="geometry" />
        </mxCell>
        <mxCell id="M2O_3QjMa4VLskCS5rX2-101" value="" style="endArrow=none;html=1;rounded=0;exitX=1;exitY=0.5;exitDx=0;exitDy=0;" edge="1" parent="1" source="M2O_3QjMa4VLskCS5rX2-100">
          <mxGeometry width="50" height="50" relative="1" as="geometry">
            <mxPoint x="540" y="434" as="sourcePoint" />
            <mxPoint x="912" y="590" as="targetPoint" />
          </mxGeometry>
        </mxCell>
        <mxCell id="M2O_3QjMa4VLskCS5rX2-103" value="" style="endArrow=none;html=1;rounded=0;" edge="1" parent="1">
          <mxGeometry width="50" height="50" relative="1" as="geometry">
            <mxPoint x="912" y="348" as="sourcePoint" />
            <mxPoint x="912" y="588" as="targetPoint" />
          </mxGeometry>
        </mxCell>
        <mxCell id="M2O_3QjMa4VLskCS5rX2-105" value="" style="endArrow=none;dashed=1;html=1;dashPattern=1 3;strokeWidth=2;rounded=0;entryX=0;entryY=0.75;entryDx=0;entryDy=0;" edge="1" parent="1" target="M2O_3QjMa4VLskCS5rX2-99">
          <mxGeometry width="50" height="50" relative="1" as="geometry">
            <mxPoint x="552" y="480" as="sourcePoint" />
            <mxPoint x="590" y="384" as="targetPoint" />
          </mxGeometry>
        </mxCell>
        <mxCell id="M2O_3QjMa4VLskCS5rX2-106" value="&amp;lt;&amp;lt;extend&amp;gt;&amp;gt;" style="edgeLabel;html=1;align=center;verticalAlign=middle;resizable=0;points=[];" vertex="1" connectable="0" parent="M2O_3QjMa4VLskCS5rX2-105">
          <mxGeometry x="-0.0893" y="-2" relative="1" as="geometry">
            <mxPoint as="offset" />
          </mxGeometry>
        </mxCell>
      </root>
    </mxGraphModel>
  </diagram>
</mxfile>
